<svg xmlns="http://www.w3.org/2000/svg" viewBox="0 0 32 32">
  <defs>
    <linearGradient id="bg" x1="0%" y1="0%" x2="100%" y2="100%">
      <stop offset="0%" style="stop-color:#FF8C42"/>
      <stop offset="100%" style="stop-color:#FF6B35"/>
    </linearGradient>
  </defs>
  <rect width="32" height="32" rx="6" fill="url(#bg)"/>
  <!-- 螃蟹身体 -->
  <ellipse cx="16" cy="18" rx="7" ry="5" fill="#FFB347"/>
  <!-- 螃蟹头 -->
  <circle cx="16" cy="12" r="5" fill="#FFB347"/>
  <!-- 左钳 -->
  <path d="M8 14 Q5 12 4 14 Q5 16 8 15" fill="#FF8C42"/>
  <path d="M4 14 L2 12 M4 14 L2 16" stroke="#FF8C42" stroke-width="1.2" stroke-linecap="round"/>
  <!-- 右钳 -->
  <path d="M24 14 Q27 12 28 14 Q27 16 24 15" fill="#FF8C42"/>
  <path d="M28 14 L30 12 M28 14 L30 16" stroke="#FF8C42" stroke-width="1.2" stroke-linecap="round"/>
  <!-- 眼睛 -->
  <circle cx="14" cy="10" r="1.5" fill="white"/>
  <circle cx="18" cy="10" r="1.5" fill="white"/>
  <circle cx="14" cy="10" r="0.8" fill="#333"/>
  <circle cx="18" cy="10" r="0.8" fill="#333"/>
  <!-- 触角 -->
  <path d="M13 7 Q11 5 10 6" stroke="#FF8C42" stroke-width="1" fill="none" stroke-linecap="round"/>
  <path d="M19 7 Q21 5 22 6" stroke="#FF8C42" stroke-width="1" fill="none" stroke-linecap="round"/>
  <!-- 嘴巴 -->
  <path d="M14 14 Q16 15 18 14" stroke="#FF6B35" stroke-width="0.8" fill="none" stroke-linecap="round"/>
</svg>