<svg xmlns="http://www.w3.org/2000/svg" viewBox="0 0 200 200" fill="none">
  <!-- QR Code pattern placeholder -->
  <rect width="200" height="200" fill="#f8fafc"/>
  <!-- Corner markers -->
  <rect x="20" y="20" width="50" height="50" fill="#1e293b" rx="4"/>
  <rect x="28" y="28" width="34" height="34" fill="#f8fafc" rx="2"/>
  <rect x="35" y="35" width="20" height="20" fill="#1e293b" rx="1"/>
  
  <rect x="130" y="20" width="50" height="50" fill="#1e293b" rx="4"/>
  <rect x="138" y="28" width="34" height="34" fill="#f8fafc" rx="2"/>
  <rect x="145" y="35" width="20" height="20" fill="#1e293b" rx="1"/>
  
  <rect x="20" y="130" width="50" height="50" fill="#1e293b" rx="4"/>
  <rect x="28" y="138" width="34" height="34" fill="#f8fafc" rx="2"/>
  <rect x="35" y="145" width="20" height="20" fill="#1e293b" rx="1"/>
  
  <!-- QR pattern dots -->
  <circle cx="100" cy="45" r="4" fill="#1e293b"/>
  <circle cx="115" cy="55" r="3" fill="#1e293b"/>
  <circle cx="90" cy="70" r="5" fill="#1e293b"/>
  <circle cx="110" cy="85" r="3" fill="#1e293b"/>
  <circle cx="130" cy="100" r="4" fill="#1e293b"/>
  <circle cx="85" cy="110" r="3" fill="#1e293b"/>
  <circle cx="100" cy="130" r="4" fill="#1e293b"/>
  <circle cx="120" cy="145" r="3" fill="#1e293b"/>
  <circle cx="90" cy="160" r="4" fill="#1e293b"/>
  <circle cx="140" cy="140" r="3" fill="#1e293b"/>
  <circle cx="160" cy="160" r="4" fill="#1e293b"/>
  <circle cx="175" cy="90" r="3" fill="#1e293b"/>
  <circle cx="155" cy="70" r="4" fill="#1e293b"/>
  <circle cx="175" cy="110" r="3" fill="#1e293b"/>
  <circle cx="100" cy="180" r="4" fill="#1e293b"/>
</svg>
